# xmcd CD database file
#
# Track frame offsets:
#	150
#	16067
#	35185
#	52490
#	70435
#	84125
#	103625
#	119772
#	137695
#	161112
#	182355
#	199960
#	218437
#	241317
#	260735
#	276075
#	297535
#	318340
#
# Disc length: 4511 seconds
#
# Revision: 1
# Processed by: cddbd v1.5.2PL0 Copyright (c) Steve Scherf et al.
# Submitted via: CDex 1.70beta2
#
DISCID=17119d12
DTITLE=杉真理 - GOLDEN☆BEST [Disc2]
DYEAR=2005
DGENRE=Pop
TTITLE0=素直になりたい
TTITLE1=8月の砂時計
TTITLE2=夢のふるさと
TTITLE3=恋人のように
TTITLE4=ウイスキーが、お好きでしょ
TTITLE5=あいつのブラウンシューズ
TTITLE6=LIVE CAPSULE
TTITLE7=君のそばに -song for Lucky
TTITLE8=Lucky
TTITLE9=メリー・ローランの島
TTITLE10=Dancing Cafe
TTITLE11=想い出のストロベリーフィールズ
TTITLE12=ジンで朝まで
TTITLE13=RAINY DAY HELLO
TTITLE14=夕焼けレッドで帰りましょう
TTITLE15=Asian Paradise −VARIOUS LANGUAGES VERSION−
TTITLE16=神様のプレゼント
TTITLE17=Don’t Worry Yoko
EXTD=YEAR: 2005
EXTT0=
EXTT1=
EXTT2=
EXTT3=
EXTT4=
EXTT5=
EXTT6=
EXTT7=
EXTT8=
EXTT9=
EXTT10=
EXTT11=
EXTT12=
EXTT13=
EXTT14=
EXTT15=
EXTT16=
EXTT17=
PLAYORDER=
